<?xml version="1.0" encoding="utf-8"?>
<!-- Generator: Adobe Illustrator 16.0.0, SVG Export Plug-In . SVG Version: 6.00 Build 0)  -->
<!DOCTYPE svg PUBLIC "-//W3C//DTD SVG 1.1//EN" "http://www.w3.org/Graphics/SVG/1.1/DTD/svg11.dtd">
<svg version="1.1" id="Layer_1" xmlns="http://www.w3.org/2000/svg" xmlns:xlink="http://www.w3.org/1999/xlink" x="0px" y="0px"
	 width="621.08px" height="283.46px" viewBox="0 0 621.08 283.46" enable-background="new 0 0 621.08 283.46" xml:space="preserve">
<g>
	<defs>
		<rect id="SVGID_1_" width="621.08" height="283.46"/>
	</defs>
	<clipPath id="SVGID_2_">
		<use xlink:href="#SVGID_1_"  overflow="visible"/>
	</clipPath>
	<path clip-path="url(#SVGID_2_)" fill="#262E33" d="M114.085,207.733v-92.912h48.983c4.466,0,8.373,0.65,11.723,1.95
		c3.349,1.302,6.14,3.043,8.373,5.224c2.233,2.183,3.907,4.715,5.023,7.592c1.117,2.879,1.676,5.851,1.676,8.914
		c0,2.973-0.422,5.666-1.264,8.081c-0.843,2.416-2.011,4.527-3.509,6.338c-1.497,1.812-3.204,3.298-5.121,4.456
		c-1.92,1.164-4.001,1.976-6.247,2.438c2.525,0.373,4.862,1.231,7.013,2.577c2.15,1.348,4.042,3.019,5.678,5.015
		c1.637,1.998,2.921,4.318,3.857,6.965c0.936,2.647,1.404,5.411,1.404,8.288c0,3.531-0.583,6.804-1.745,9.821
		c-1.163,3.018-2.884,5.666-5.163,7.939c-2.281,2.277-5.096,4.063-8.443,5.363c-3.35,1.302-7.257,1.95-11.721,1.95H114.085z
		 M158.661,152.014c3.342,0,5.989-0.928,7.939-2.786c1.95-1.856,2.925-4.27,2.925-7.242c0-2.972-0.975-5.41-2.925-7.315
		c-1.95-1.901-4.597-2.854-7.939-2.854h-24.796v20.197H158.661z M159.357,190.6c3.806,0,6.756-0.95,8.845-2.855
		c2.09-1.902,3.134-4.527,3.134-7.871c0-2.97-1.023-5.523-3.064-7.661c-2.044-2.135-5.015-3.203-8.915-3.203h-25.492V190.6H159.357z
		"/>
	<polygon clip-path="url(#SVGID_2_)" fill="#262E33" points="320.523,207.733 320.523,168.729 276.644,168.729 276.644,207.733 
		256.864,207.733 256.864,114.821 276.644,114.821 276.644,151.318 320.523,151.318 320.523,114.821 340.304,114.821 
		340.304,207.733 	"/>
	<path clip-path="url(#SVGID_2_)" fill="#262E33" d="M400.688,209.405c-7.07,0-13.234-0.953-18.488-2.855
		c-5.256-1.902-9.629-4.55-13.116-7.94c-3.488-3.388-6.094-7.452-7.813-12.189c-1.722-4.735-2.581-9.98-2.581-15.74v-55.858h20.059
		v55.162c0,6.502,1.833,11.771,5.502,15.81c3.667,4.04,9.125,6.061,16.368,6.061c7.244,0,12.676-2.021,16.298-6.061
		c3.622-4.039,5.434-9.308,5.434-15.81v-55.162h20.338v55.719c0,5.76-0.862,11.029-2.582,15.812
		c-1.723,4.784-4.327,8.893-7.814,12.328c-3.489,3.437-7.861,6.084-13.116,7.939C413.919,208.476,407.757,209.405,400.688,209.405"
		/>
	<path clip-path="url(#SVGID_2_)" fill="#262E33" d="M493.809,209.405c-9.009,0-16.717-1.357-23.125-4.073
		c-6.407-2.714-11.794-6.317-16.158-10.812l10.726-15.065c3.251,3.438,7.383,6.387,12.398,8.847
		c5.015,2.462,10.726,3.69,17.134,3.69c5.478,0,9.542-1.042,12.188-3.127s3.971-4.473,3.971-7.163c0-2.686-1.324-4.75-3.971-6.186
		c-2.646-1.438-5.944-2.666-9.891-3.686c-3.948-1.018-8.243-2.085-12.885-3.198c-4.646-1.113-8.938-2.689-12.885-4.729
		c-3.948-2.04-7.244-4.797-9.891-8.272c-2.646-3.477-3.97-8.135-3.97-13.977c0-3.891,0.816-7.53,2.453-10.914
		c1.637-3.383,3.974-6.373,7.013-8.971c3.038-2.594,6.749-4.633,11.128-6.117c4.379-1.483,9.308-2.225,14.788-2.225
		c14.766,0,26.837,4.353,36.218,13.06l-11.005,14.522c-3.809-3.529-8.079-6.106-12.814-7.733c-4.737-1.622-9.474-2.436-14.209-2.436
		c-4.272,0-7.548,0.857-9.821,2.571c-2.276,1.715-3.413,3.964-3.413,6.743c0,2.413,1.319,4.288,3.96,5.633
		c2.638,1.346,5.926,2.503,9.863,3.478c3.935,0.975,8.197,2.041,12.784,3.198c4.584,1.158,8.845,2.782,12.781,4.867
		c3.936,2.085,7.226,4.891,9.864,8.412c2.638,3.522,3.96,8.158,3.96,13.904c0,4.266-0.766,8.206-2.298,11.821
		c-1.533,3.614-3.831,6.741-6.896,9.386c-3.063,2.642-6.942,4.729-11.631,6.257C505.485,208.64,500.029,209.405,493.809,209.405"/>
	<rect x="201.874" y="198.832" clip-path="url(#SVGID_2_)" fill="#D02026" width="42.243" height="8.994"/>
	<polygon clip-path="url(#SVGID_2_)" fill="#D02026" points="244.117,161.34 216.567,181.479 244.117,181.479 244.117,190.474 
		201.874,190.474 201.874,181.227 228.41,161.655 201.874,161.655 201.874,152.664 244.117,152.664 	"/>
	<polygon clip-path="url(#SVGID_2_)" fill="#D02026" points="244.117,144.305 201.874,144.305 201.874,114.41 209.791,114.41 
		209.791,135.311 218.721,135.311 218.721,114.855 226.637,114.855 226.637,135.311 244.117,135.311 	"/>
	<path clip-path="url(#SVGID_2_)" fill="#262E33" d="M243.23,75.686c-1.077-2.701-2.586-5.034-4.528-6.999
		c-1.942-1.963-4.253-3.492-6.935-4.591c-2.681-1.097-5.605-1.647-8.772-1.647c-3.166,0-6.09,0.55-8.772,1.647
		c-2.68,1.099-4.991,2.628-6.934,4.591c-1.942,1.965-3.452,4.298-4.528,6.999c-1.077,2.702-1.615,5.659-1.615,8.866
		c0,3.167,0.538,6.102,1.615,8.804c1.076,2.703,2.586,5.035,4.528,6.998c1.943,1.963,4.254,3.494,6.934,4.591
		c2.682,1.099,5.606,1.647,8.772,1.647c3.167,0,6.091-0.548,8.772-1.647c2.682-1.097,4.993-2.628,6.935-4.591
		c1.942-1.963,3.451-4.295,4.528-6.998c1.076-2.702,1.615-5.637,1.615-8.804C244.845,81.345,244.306,78.388,243.23,75.686
		 M234.128,78.087v12.867v0.024l-11.164,6.446l-11.165-6.446v-0.024V78.087v-0.024l11.165-6.446l11.164,6.446V78.087z"/>
</g>
</svg>
