<?xml version="1.0" encoding="utf-8"?>
<!-- Generator: Adobe Illustrator 16.0.0, SVG Export Plug-In . SVG Version: 6.00 Build 0)  -->
<!DOCTYPE svg PUBLIC "-//W3C//DTD SVG 1.1//EN" "http://www.w3.org/Graphics/SVG/1.1/DTD/svg11.dtd">
<svg version="1.1" id="Layer_1" xmlns="http://www.w3.org/2000/svg" xmlns:xlink="http://www.w3.org/1999/xlink" x="0px" y="0px"
	 width="283.46px" height="283.46px" viewBox="0 0 283.46 283.46" style="enable-background:new 0 0 283.46 283.46;"
	 xml:space="preserve">
<g>
	<defs>
		<rect id="SVGID_1_" width="283.46" height="283.46"/>
	</defs>
	<clipPath id="SVGID_2_">
		<use xlink:href="#SVGID_1_"  style="overflow:visible;"/>
	</clipPath>
	<path style="clip-path:url(#SVGID_2_);fill:#262E33;" d="M65.666,166.191c1.111-1.012,1.667-2.408,1.667-4.186
		c0-1.58-0.544-2.938-1.63-4.075c-1.087-1.135-2.667-1.704-4.741-1.704H47.814v11.483h13.148
		C62.986,167.71,64.555,167.204,65.666,166.191"/>
	<path style="clip-path:url(#SVGID_2_);fill:#262E33;" d="M237.357,135.927c-2.271,0-4.014,0.456-5.223,1.368
		c-1.211,0.912-1.815,2.108-1.815,3.586c0,1.283,0.701,2.281,2.105,2.996c1.403,0.716,3.152,1.331,5.247,1.85
		c2.092,0.519,4.358,1.085,6.798,1.701c1.111,0.28,2.181,0.62,3.22,1.003v-9.966c-0.892-0.48-1.81-0.909-2.774-1.241
		C242.396,136.36,239.877,135.927,237.357,135.927"/>
	<path style="clip-path:url(#SVGID_2_);fill:#262E33;" d="M64.814,145.706c1.037-0.986,1.556-2.271,1.556-3.852
		s-0.519-2.877-1.556-3.89c-1.037-1.012-2.445-1.518-4.223-1.518H47.814v10.742h12.777
		C62.369,147.188,63.777,146.695,64.814,145.706"/>
	<path style="clip-path:url(#SVGID_2_);fill:#262E33;" d="M147.753,31.867l-99.939,57.7v0.218v37.623h15.122
		c2.375,0,4.453,0.345,6.234,1.037c1.782,0.692,3.266,1.618,4.454,2.778c1.187,1.161,2.078,2.508,2.671,4.038
		c0.594,1.531,0.892,3.112,0.892,4.741c0,1.581-0.225,3.013-0.673,4.298c-0.448,1.284-1.069,2.407-1.866,3.37
		c-0.796,0.964-1.704,1.754-2.724,2.371c-1.021,0.617-2.127,1.05-3.322,1.296c1.343,0.198,2.586,0.655,3.73,1.371
		c1.143,0.717,2.149,1.604,3.02,2.667c0.87,1.063,1.553,2.297,2.051,3.704c0.498,1.407,0.747,2.878,0.747,4.407
		c0,1.878-0.311,3.619-0.928,5.225c-0.619,1.604-1.534,3.013-2.746,4.223c-1.214,1.211-2.71,2.161-4.491,2.852
		c-1.781,0.692-3.859,1.037-6.233,1.037H47.813v28.144v0.218l99.938,57.7l99.939-57.7v-0.218v-28.528
		c-0.051,0.017-0.095,0.038-0.146,0.054c-2.494,0.813-5.396,1.221-8.705,1.221c-4.791,0-8.892-0.723-12.299-2.166
		c-3.408-1.444-6.272-3.36-8.595-5.751l5.705-8.013c1.729,1.829,3.926,3.397,6.594,4.705c2.667,1.31,5.704,1.963,9.113,1.963
		c2.913,0,5.074-0.554,6.482-1.663c0.939-0.74,1.537-1.56,1.85-2.443v-2.665c-0.313-0.809-0.91-1.48-1.85-1.991
		c-1.408-0.764-3.162-1.418-5.26-1.96c-2.101-0.541-4.385-1.109-6.854-1.701c-2.471-0.592-4.754-1.43-6.853-2.515
		c-2.101-1.084-3.854-2.551-5.261-4.399s-2.11-4.327-2.11-7.434c0-2.069,0.433-4.004,1.304-5.804c0.871-1.8,2.113-3.39,3.729-4.771
		c1.615-1.38,3.59-2.465,5.919-3.254c2.328-0.788,4.949-1.183,7.864-1.183c3.397,0,6.51,0.46,9.37,1.326V89.785v-0.218
		L147.753,31.867z M157.198,176.822h-10.521v-20.744h-23.337v20.744h-10.52v-49.415h10.52v19.41h23.337v-19.41h10.521V176.822z
		 M211.65,157.042c0,3.063-0.459,5.864-1.373,8.408c-0.916,2.544-2.302,4.73-4.155,6.558c-1.856,1.827-4.182,3.234-6.977,4.222
		c-2.795,0.988-6.072,1.482-9.832,1.482s-7.038-0.508-9.833-1.52c-2.795-1.011-5.121-2.419-6.976-4.223
		c-1.855-1.802-3.24-3.963-4.155-6.482c-0.916-2.519-1.373-5.309-1.373-8.372v-29.708h10.668v29.337
		c0,3.458,0.975,6.261,2.926,8.408c1.951,2.149,4.854,3.224,8.706,3.224c3.853,0,6.741-1.074,8.668-3.224
		c1.926-2.147,2.89-4.95,2.89-8.408v-29.337h10.816V157.042z"/>
	<rect x="83.574" y="172.088" style="clip-path:url(#SVGID_2_);fill:#D02026;" width="22.467" height="4.784"/>
	<polygon style="clip-path:url(#SVGID_2_);fill:#D02026;" points="106.041,152.148 91.389,162.859 106.041,162.859 106.041,167.643 
		83.574,167.643 83.574,162.725 97.687,152.316 83.574,152.316 83.574,147.533 106.041,147.533 	"/>
	<polygon style="clip-path:url(#SVGID_2_);fill:#D02026;" points="106.041,143.088 83.574,143.088 83.574,127.189 87.785,127.189 
		87.785,138.304 92.534,138.304 92.534,127.425 96.744,127.425 96.744,138.304 106.041,138.304 	"/>
	<path style="clip-path:url(#SVGID_2_);fill:#FFFFFF;" d="M105.57,106.593c-0.573-1.436-1.375-2.677-2.408-3.722
		c-1.033-1.044-2.262-1.858-3.689-2.442c-1.426-0.584-2.981-0.876-4.665-0.876s-3.239,0.292-4.665,0.876s-2.655,1.398-3.689,2.442
		c-1.032,1.045-1.835,2.286-2.408,3.722c-0.572,1.437-0.859,3.01-0.859,4.715c0,1.685,0.287,3.246,0.859,4.683
		c0.573,1.437,1.376,2.678,2.408,3.722c1.034,1.044,2.263,1.858,3.689,2.441c1.426,0.585,2.981,0.876,4.665,0.876
		s3.239-0.291,4.665-0.876c1.427-0.583,2.656-1.397,3.689-2.441s1.835-2.285,2.408-3.722c0.572-1.437,0.859-2.998,0.859-4.683
		C106.429,109.603,106.142,108.03,105.57,106.593 M100.729,107.87v6.843v0.013l-5.938,3.429l-5.937-3.429v-0.013v-6.843v-0.013
		l5.937-3.428l5.938,3.428V107.87z"/>
</g>
</svg>
